<svg width="13" height="13" viewBox="0 0 13 13" fill="none" xmlns="http://www.w3.org/2000/svg">
<path fill-rule="evenodd" clip-rule="evenodd" d="M4.25737 0.571541C4.2044 0.373964 4.07511 0.205523 3.89794 0.103273C3.72078 0.00102333 3.51025 -0.0266598 3.31267 0.0263136C3.1151 0.079287 2.94665 0.208578 2.8444 0.385743C2.74215 0.562909 2.71447 0.773437 2.76744 0.971014L2.96718 1.71598C3.02016 1.91355 3.14945 2.08199 3.32661 2.18424C3.50378 2.28649 3.71431 2.31418 3.91188 2.2612C4.10946 2.20823 4.2779 2.07894 4.38015 1.90177C4.4824 1.72461 4.51008 1.51408 4.45711 1.3165L4.2566 0.571541H4.25737ZM0.98524 2.75322C0.88724 2.7265 0.784928 2.71941 0.684179 2.73235C0.583431 2.74529 0.486231 2.77801 0.398162 2.82862C0.310093 2.87923 0.23289 2.94674 0.170987 3.02727C0.109084 3.10781 0.0637003 3.19978 0.0374426 3.2979C0.0111849 3.39602 0.00457057 3.49837 0.0179793 3.59905C0.031388 3.69974 0.0645555 3.79679 0.115577 3.88462C0.166599 3.97245 0.23447 4.04934 0.315291 4.11087C0.396113 4.17239 0.488293 4.21735 0.586537 4.24315L1.3315 4.44288C1.52872 4.49467 1.73843 4.46625 1.91474 4.36383C2.09106 4.2614 2.21964 4.09332 2.27235 3.89634C2.32506 3.69937 2.29761 3.48953 2.19601 3.31274C2.09441 3.13594 1.92693 3.00658 1.7302 2.95296L0.98524 2.75245V2.75322ZM7.78245 2.31442C7.85405 2.24276 7.91084 2.15771 7.94957 2.06412C7.9883 1.97052 8.00822 1.87021 8.00818 1.76892C8.00814 1.66762 7.98816 1.56733 7.94936 1.47376C7.91056 1.38019 7.85372 1.29518 7.78207 1.22358C7.71042 1.15198 7.62536 1.09519 7.53177 1.05646C7.43817 1.01773 7.33786 0.997813 7.23657 0.997849C7.13527 0.997885 7.03498 1.01787 6.94141 1.05667C6.84784 1.09546 6.76283 1.15231 6.69123 1.22396L6.146 1.76919C6.07435 1.84084 6.01751 1.9259 5.97874 2.01952C5.93996 2.11313 5.92 2.21347 5.92 2.3148C5.92 2.41613 5.93996 2.51647 5.97874 2.61008C6.01751 2.7037 6.07435 2.78876 6.146 2.86041C6.21765 2.93207 6.30271 2.9889 6.39633 3.02768C6.48995 3.06646 6.59028 3.08641 6.69161 3.08641C6.79294 3.08641 6.89328 3.06646 6.9869 3.02768C7.08051 2.9889 7.16558 2.93207 7.23723 2.86041L7.78245 2.31442ZM2.32941 7.76823L2.87464 7.223C3.01945 7.0784 3.10088 6.88219 3.10103 6.67755C3.10117 6.4729 3.02001 6.27658 2.87541 6.13178C2.73081 5.98697 2.5346 5.90553 2.32996 5.90539C2.12531 5.90525 1.92899 5.9864 1.78419 6.131L1.23819 6.67623C1.09348 6.82094 1.01219 7.0172 1.01219 7.22184C1.01219 7.42649 1.09348 7.62275 1.23819 7.76746C1.38289 7.91216 1.57916 7.99346 1.7838 7.99346C1.98844 7.99346 2.18471 7.91216 2.32941 7.76746V7.76823ZM4.7972 3.78044C4.65706 3.72434 4.50353 3.71061 4.35565 3.74094C4.20777 3.77128 4.07205 3.84434 3.96531 3.95109C3.85857 4.05783 3.7855 4.19355 3.75517 4.34143C3.72483 4.4893 3.73856 4.64283 3.79466 4.78298L6.8794 12.4948C6.93467 12.6328 7.02866 12.7519 7.15005 12.8378C7.27144 12.9236 7.41506 12.9726 7.56361 12.9787C7.71217 12.9848 7.85932 12.9478 7.98735 12.8722C8.11539 12.7967 8.21884 12.6857 8.28526 12.5527L9.3495 10.425L11.6769 12.7539C11.8216 12.8985 12.0179 12.9797 12.2224 12.9797C12.427 12.9796 12.6232 12.8983 12.7678 12.7535C12.9124 12.6088 12.9936 12.4126 12.9935 12.208C12.9934 12.0035 12.9121 11.8073 12.7674 11.6627L10.4392 9.33373L12.5676 8.27027C12.7004 8.20368 12.8111 8.10018 12.8865 7.97219C12.9618 7.8442 12.9986 7.69717 12.9924 7.54878C12.9863 7.40038 12.9373 7.25693 12.8516 7.13566C12.7658 7.01439 12.6469 6.92047 12.509 6.86517L4.7972 3.78044Z" fill="#B4B4B4"/>
</svg>
