<svg width="15" height="15" viewBox="0 0 15 15" fill="none" xmlns="http://www.w3.org/2000/svg">
<g clip-path="url(#clip0)">
<path d="M13.125 9.84375C12.8663 9.84375 12.6562 9.63375 12.6562 9.375V8.4375H2.34375V9.375C2.34375 9.63375 2.13375 9.84375 1.875 9.84375C1.61625 9.84375 1.40625 9.63375 1.40625 9.375V7.96875C1.40625 7.71 1.61625 7.5 1.875 7.5H13.125C13.3837 7.5 13.5938 7.71 13.5938 7.96875V9.375C13.5938 9.63375 13.3837 9.84375 13.125 9.84375Z" fill="#B4B4B4"/>
<path d="M7.5 10C7.24125 10 7.03125 9.79 7.03125 9.53125V6.71875C7.03125 6.46 7.24125 6.25 7.5 6.25C7.75875 6.25 7.96875 6.46 7.96875 6.71875V9.53125C7.96875 9.79 7.75875 10 7.5 10Z" fill="#B4B4B4"/>
<path d="M1.875 12.5C2.39277 12.5 2.8125 12.0803 2.8125 11.5625C2.8125 11.0447 2.39277 10.625 1.875 10.625C1.35723 10.625 0.9375 11.0447 0.9375 11.5625C0.9375 12.0803 1.35723 12.5 1.875 12.5Z" fill="#B4B4B4"/>
<path d="M2.34375 13.125H1.40625C0.63125 13.125 0 13.7556 0 14.5312C0 14.79 0.21 15 0.46875 15H3.28125C3.54 15 3.75 14.79 3.75 14.5312C3.75 13.7556 3.11875 13.125 2.34375 13.125Z" fill="#B4B4B4"/>
<path d="M7.5 12.5C8.01777 12.5 8.4375 12.0803 8.4375 11.5625C8.4375 11.0447 8.01777 10.625 7.5 10.625C6.98223 10.625 6.5625 11.0447 6.5625 11.5625C6.5625 12.0803 6.98223 12.5 7.5 12.5Z" fill="#B4B4B4"/>
<path d="M7.96875 13.125H7.03125C6.25625 13.125 5.625 13.7556 5.625 14.5312C5.625 14.79 5.835 15 6.09375 15H8.90625C9.165 15 9.375 14.79 9.375 14.5312C9.375 13.7556 8.74375 13.125 7.96875 13.125Z" fill="#B4B4B4"/>
<path d="M13.125 12.5C13.6428 12.5 14.0625 12.0803 14.0625 11.5625C14.0625 11.0447 13.6428 10.625 13.125 10.625C12.6072 10.625 12.1875 11.0447 12.1875 11.5625C12.1875 12.0803 12.6072 12.5 13.125 12.5Z" fill="#B4B4B4"/>
<path d="M13.5938 13.125H12.6562C11.8813 13.125 11.25 13.7556 11.25 14.5312C11.25 14.79 11.46 15 11.7188 15H14.5312C14.79 15 15 14.79 15 14.5312C15 13.7556 14.3688 13.125 13.5938 13.125Z" fill="#B4B4B4"/>
<path d="M10.2251 2.02312L8.63633 1.78625L7.91695 0.268125C7.83945 0.104375 7.67445 0 7.4932 0C7.49258 0 7.49195 0 7.49133 0C7.31008 0.000625 7.14445 0.10625 7.0682 0.27125L6.35945 1.79375L4.77132 2.04187C4.59757 2.06875 4.45383 2.19062 4.39883 2.3575C4.3432 2.525 4.38695 2.70812 4.50945 2.83375L5.67632 4.02L5.40695 5.7075C5.3782 5.88438 5.45445 6.0625 5.60133 6.165C5.68133 6.22188 5.77508 6.25 5.87008 6.25C5.9482 6.25 6.02695 6.23062 6.0982 6.19062L7.51008 5.40438L8.9282 6.18062C9.08445 6.26687 9.27758 6.25688 9.42508 6.15188C9.5707 6.04813 9.6457 5.87 9.61633 5.6925L9.33508 4.0075L10.4938 2.81312C10.6163 2.68687 10.6582 2.50312 10.6013 2.33687C10.5438 2.17 10.3995 2.04938 10.2251 2.02312Z" fill="#B4B4B4"/>
</g>
<defs>
<clipPath id="clip0">
<rect width="15" height="15" fill="white"/>
</clipPath>
</defs>
</svg>
