<svg width="15" height="15" viewBox="0 0 15 15" fill="none" xmlns="http://www.w3.org/2000/svg">
<path d="M7.5 0C3.3525 0 0 3.3525 0 7.5C0 11.6475 3.3525 15 7.5 15C11.6475 15 15 11.6475 15 7.5C15 3.3525 11.6475 0 7.5 0ZM10.725 10.725C10.6556 10.7945 10.5732 10.8497 10.4825 10.8873C10.3917 10.925 10.2945 10.9443 10.1962 10.9443C10.098 10.9443 10.0008 10.925 9.91003 10.8873C9.8193 10.8497 9.73689 10.7945 9.6675 10.725L7.5 8.5575L5.3325 10.725C5.19227 10.8652 5.00207 10.944 4.80375 10.944C4.60543 10.944 4.41523 10.8652 4.275 10.725C4.13477 10.5848 4.05598 10.3946 4.05598 10.1962C4.05598 10.0981 4.07533 10.0008 4.1129 9.91009C4.15048 9.81937 4.20556 9.73694 4.275 9.6675L6.4425 7.5L4.275 5.3325C4.13477 5.19227 4.05598 5.00207 4.05598 4.80375C4.05598 4.60543 4.13477 4.41523 4.275 4.275C4.41523 4.13477 4.60543 4.05598 4.80375 4.05598C5.00207 4.05598 5.19227 4.13477 5.3325 4.275L7.5 6.4425L9.6675 4.275C9.73694 4.20556 9.81937 4.15048 9.91009 4.1129C10.0008 4.07533 10.0981 4.05598 10.1962 4.05598C10.2944 4.05598 10.3917 4.07533 10.4824 4.1129C10.5731 4.15048 10.6556 4.20556 10.725 4.275C10.7944 4.34444 10.8495 4.42687 10.8871 4.51759C10.9247 4.60832 10.944 4.70555 10.944 4.80375C10.944 4.90195 10.9247 4.99918 10.8871 5.08991C10.8495 5.18063 10.7944 5.26306 10.725 5.3325L8.5575 7.5L10.725 9.6675C11.01 9.9525 11.01 10.4325 10.725 10.725Z" fill="#E75E5E"/>
</svg>
