<svg width="14" height="13" viewBox="0 0 14 13" fill="none" xmlns="http://www.w3.org/2000/svg">
<path d="M12.7072 2.60233C12.5058 2.12509 12.2154 1.69263 11.8522 1.32914C11.4887 0.964566 11.0602 0.674846 10.5899 0.475732C10.1022 0.268443 9.57913 0.162341 9.05105 0.163585C8.31019 0.163585 7.58737 0.37117 6.95922 0.763276C6.80895 0.857073 6.66619 0.960097 6.53094 1.07235C6.39569 0.960097 6.25293 0.857073 6.10266 0.763276C5.47451 0.37117 4.75168 0.163585 4.01083 0.163585C3.47735 0.163585 2.96041 0.268147 2.47201 0.475732C2.00015 0.675629 1.57487 0.963173 1.2097 1.32914C0.846034 1.69222 0.555524 2.12478 0.35464 2.60233C0.145758 3.09899 0.0390625 3.62641 0.0390625 4.16921C0.0390625 4.68125 0.14125 5.21483 0.344121 5.75762C0.513931 6.21123 0.757377 6.68176 1.06845 7.1569C1.56135 7.90882 2.23909 8.69303 3.08063 9.48801C4.47518 10.8058 5.8562 11.7161 5.91481 11.753L6.27096 11.9867C6.42875 12.0897 6.63162 12.0897 6.78941 11.9867L7.14556 11.753C7.20417 11.7146 8.5837 10.8058 9.97975 9.48801C10.8213 8.69303 11.499 7.90882 11.9919 7.1569C12.303 6.68176 12.5479 6.21123 12.7163 5.75762C12.9191 5.21483 13.0213 4.68125 13.0213 4.16921C13.0228 3.62641 12.9161 3.09899 12.7072 2.60233Z" fill="#B4B4B4"/>
</svg>
