<svg width="15" height="17" viewBox="0 0 15 17" fill="none" xmlns="http://www.w3.org/2000/svg">
<path d="M2.75 0C3.47935 0 4.17882 0.289731 4.69454 0.805456C5.21027 1.32118 5.5 2.02065 5.5 2.75V13.75C5.5 14.4793 5.21027 15.1788 4.69454 15.6945C4.17882 16.2103 3.47935 16.5 2.75 16.5C2.02065 16.5 1.32118 16.2103 0.805456 15.6945C0.289731 15.1788 1.53698e-08 14.4793 0 13.75V2.75C0 2.02065 0.289731 1.32118 0.805456 0.805456C1.32118 0.289731 2.02065 0 2.75 0ZM11.9167 0C12.646 0 13.3455 0.289731 13.8612 0.805456C14.3769 1.32118 14.6667 2.02065 14.6667 2.75V13.75C14.6667 14.4793 14.3769 15.1788 13.8612 15.6945C13.3455 16.2103 12.646 16.5 11.9167 16.5C11.1873 16.5 10.4878 16.2103 9.97212 15.6945C9.4564 15.1788 9.16667 14.4793 9.16667 13.75V2.75C9.16667 2.02065 9.4564 1.32118 9.97212 0.805456C10.4878 0.289731 11.1873 0 11.9167 0Z" fill="#B4B4B4"/>
</svg>
