<svg width="8" height="6" viewBox="0 0 8 6" fill="none" xmlns="http://www.w3.org/2000/svg">
<path d="M3.44095 5.46338C3.47535 5.51334 3.52138 5.5542 3.57508 5.58242C3.62878 5.61064 3.68853 5.62539 3.7492 5.62539C3.80986 5.62539 3.86962 5.61064 3.92331 5.58242C3.97701 5.5542 4.02305 5.51334 4.05745 5.46338L7.43245 0.588375C7.47151 0.532147 7.49442 0.466287 7.49869 0.397952C7.50295 0.329618 7.4884 0.261421 7.45663 0.200773C7.42486 0.140124 7.37707 0.0893432 7.31846 0.0539468C7.25985 0.0185505 7.19267 -0.000107379 7.1242 4.6487e-07H0.374198C0.305889 0.000282618 0.23895 0.0191805 0.180578 0.0546616C0.122207 0.0901427 0.0746116 0.140865 0.0429113 0.201373C0.0112111 0.261881 -0.00339494 0.329886 0.000664049 0.398075C0.00472303 0.466263 0.0272934 0.532055 0.065948 0.588375L3.44095 5.46338Z" fill="#B4B4B4"/>
</svg>
