<svg width="14" height="11" viewBox="0 0 14 11" fill="none" xmlns="http://www.w3.org/2000/svg">
<path fill-rule="evenodd" clip-rule="evenodd" d="M0 5.5C0.6615 2.36225 3.5441 0 7 0C10.4559 0 13.3385 2.36225 14 5.5C13.3385 8.63775 10.4559 11 7 11C3.5441 11 0.6615 8.63775 0 5.5ZM7 8.9375C7.92826 8.9375 8.8185 8.57534 9.47487 7.93068C10.1313 7.28602 10.5 6.41168 10.5 5.5C10.5 4.58832 10.1313 3.71398 9.47487 3.06932C8.8185 2.42466 7.92826 2.0625 7 2.0625C6.07174 2.0625 5.1815 2.42466 4.52513 3.06932C3.86875 3.71398 3.5 4.58832 3.5 5.5C3.5 6.41168 3.86875 7.28602 4.52513 7.93068C5.1815 8.57534 6.07174 8.9375 7 8.9375ZM7 7.5625C7.55695 7.5625 8.0911 7.3452 8.48492 6.95841C8.87875 6.57161 9.1 6.04701 9.1 5.5C9.1 4.95299 8.87875 4.42839 8.48492 4.04159C8.0911 3.6548 7.55695 3.4375 7 3.4375C6.44305 3.4375 5.9089 3.6548 5.51508 4.04159C5.12125 4.42839 4.9 4.95299 4.9 5.5C4.9 6.04701 5.12125 6.57161 5.51508 6.95841C5.9089 7.3452 6.44305 7.5625 7 7.5625Z" fill="#B4B4B4"/>
</svg>
